<svg width="18" height="24" viewBox="0 0 18 24" fill="none" xmlns="http://www.w3.org/2000/svg">
<path d="M14.7557 12.4829C14.7283 9.50704 16.9967 8.07977 17.0981 8.00766C15.8233 5.98923 13.8371 5.71227 13.1302 5.68076C11.4413 5.49501 9.8331 6.75802 8.97629 6.75802C8.12124 6.75802 6.79745 5.70798 5.39692 5.73472C3.55454 5.76432 1.85636 6.89507 0.908272 8.68095C-1.0051 12.2752 0.418794 17.6018 2.28322 20.5189C3.19471 21.9447 4.28171 23.5492 5.70781 23.4904C7.08232 23.4317 7.6009 22.5278 9.26248 22.5278C10.9241 22.5278 11.3906 23.4904 12.8445 23.4603C14.3226 23.4312 15.2597 22.0073 16.1637 20.5757C17.2101 18.9192 17.6409 17.3153 17.6665 17.2341C17.6343 17.2179 14.7852 16.036 14.7557 12.4829Z" fill="black"/>
<path d="M12.0235 3.75083C12.7797 2.75666 13.2922 1.37523 13.1528 0C12.0614 0.0477509 10.7403 0.785503 9.95664 1.77872C9.25462 2.6602 8.64079 4.0636 8.80527 5.414C10.0228 5.51619 11.2646 4.7431 12.0235 3.75083Z" fill="black"/>
</svg>
