<svg width="14" height="14" viewBox="0 0 14 14" fill="none" xmlns="http://www.w3.org/2000/svg">
<path d="M6.56105 3.14844C4.7092 3.14844 3.1748 4.65637 3.1748 6.53468C3.1748 8.41299 4.68274 9.92092 6.56105 9.92092C8.43936 9.92092 9.94729 8.38653 9.94729 6.53468C9.94729 4.68283 8.4129 3.14844 6.56105 3.14844ZM6.56105 8.70399C5.37057 8.70399 4.39174 7.72516 4.39174 6.53468C4.39174 5.3442 5.37057 4.36537 6.56105 4.36537C7.75152 4.36537 8.73036 5.3442 8.73036 6.53468C8.73036 7.72516 7.75152 8.70399 6.56105 8.70399Z" fill="white"/>
<path d="M10.0797 3.83517C10.5034 3.83517 10.8469 3.49169 10.8469 3.06798C10.8469 2.64427 10.5034 2.30078 10.0797 2.30078C9.65599 2.30078 9.3125 2.64427 9.3125 3.06798C9.3125 3.49169 9.65599 3.83517 10.0797 3.83517Z" fill="white"/>
<path d="M12.0635 1.08466C11.3757 0.37037 10.3968 0 9.28571 0H3.83598C1.53439 0 0 1.53439 0 3.83598V9.25926C0 10.3968 0.37037 11.3757 1.11111 12.0899C1.8254 12.7778 2.77778 13.1217 3.86243 13.1217H9.25926C10.3968 13.1217 11.3492 12.7513 12.037 12.0899C12.7513 11.4021 13.1217 10.4233 13.1217 9.28572V3.83598C13.1217 2.72487 12.7513 1.77249 12.0635 1.08466ZM11.9577 9.28572C11.9577 10.1058 11.6667 10.7672 11.1905 11.2169C10.7143 11.6667 10.0529 11.9048 9.25926 11.9048H3.86243C3.06878 11.9048 2.40741 11.6667 1.93122 11.2169C1.45503 10.7407 1.21693 10.0794 1.21693 9.25926V3.83598C1.21693 3.04233 1.45503 2.38095 1.93122 1.90476C2.38095 1.45503 3.06878 1.21693 3.86243 1.21693H9.31217C10.1058 1.21693 10.7672 1.45503 11.2434 1.93122C11.6931 2.40741 11.9577 3.06878 11.9577 3.83598V9.28572Z" fill="white"/>
</svg>
