<svg width="25" height="23" viewBox="0 0 25 23" fill="none" xmlns="http://www.w3.org/2000/svg">
<g clip-path="url(#clip0_6546_336)">
<path d="M8.44627 14.8736C8.95139 15.8719 9.55753 16.7204 10.3657 17.519L12.7903 15.1232C12.2852 14.624 11.8306 14.0251 11.5275 13.3762C11.2244 12.7273 10.9719 12.0285 10.9214 11.3298C10.8203 10.631 10.8708 9.88227 11.0224 9.18349C11.1739 8.4847 11.4265 7.78592 11.8306 7.18696C12.1841 6.588 12.6893 5.98904 13.2954 5.53982C13.9016 5.04069 14.6087 4.64138 15.4169 4.39182C16.1746 4.14225 17.0333 3.99251 17.8415 4.04243C18.5992 3.99251 19.4073 4.19217 20.165 4.49164C20.9227 4.79112 21.6299 5.29026 22.236 5.8393L24.6606 3.44347C23.7514 2.54503 22.6906 1.84625 21.5288 1.34711C20.3671 0.847982 19.1043 0.548503 17.8415 0.548503C16.5787 0.498589 15.3159 0.698242 14.1036 1.14746C12.8913 1.59668 11.8306 2.24555 10.9214 2.99425C10.0121 3.69303 9.30497 4.59147 8.74934 5.48991C8.19371 6.43826 7.78962 7.48644 7.58757 8.53461C7.38552 9.58279 7.33501 10.6809 7.48655 11.779C7.63808 12.8771 7.94115 13.9252 8.44627 14.8736Z" fill="#9BADA1"/>
<path d="M8.64749 23.0094C9.91029 23.0594 11.1731 22.8597 12.3854 22.4105C13.3451 22.0611 14.2543 21.6119 15.0625 21.0129C15.8707 20.414 16.5779 19.7152 17.184 18.9166C17.7901 18.1179 18.2447 17.2195 18.5983 16.2712C19.0024 15.1232 19.2045 13.8753 19.154 12.6275C19.1034 11.3797 18.8004 10.1817 18.2953 9.08366C17.7901 7.98557 17.083 6.93739 16.2243 6.08887L13.6987 8.4847C14.2038 8.98383 14.6079 9.58279 14.911 10.2317C15.214 10.8805 15.4161 11.5294 15.5171 12.2282C15.6181 12.927 15.6181 13.6258 15.4666 14.3245C15.3151 15.0233 15.0625 15.6722 14.7594 16.2712C14.4564 16.8202 14.1028 17.3193 13.6987 17.7186C13.2946 18.1179 12.7895 18.4673 12.2843 18.7668C11.7792 19.0663 11.2236 19.266 10.668 19.4157C9.91029 19.6153 9.15261 19.6653 8.39494 19.5654C7.63726 19.5155 6.87958 19.3159 6.17241 18.9665C5.46525 18.667 4.80859 18.2178 4.30348 17.6687L1.87891 20.0646C2.78812 20.963 3.84887 21.6618 5.01064 22.1609C6.1219 22.71 7.3847 22.9595 8.64749 23.0094Z" fill="#002F2E"/>
<path d="M16.9314 15.1729C16.4768 12.5774 15.3151 10.2814 13.7492 8.43457L13.6987 8.48448C14.2038 8.98362 14.6079 9.58257 14.911 10.2314C15.214 10.8803 15.4161 11.5292 15.5171 12.228C15.6181 12.9268 15.6181 13.6255 15.4666 14.3243C15.3151 15.0231 15.0625 15.672 14.7594 16.2709C14.4564 16.82 14.1028 17.3191 13.6987 17.7184C13.2946 18.1177 12.7895 18.4671 12.2843 18.7666C11.7792 19.0661 11.2236 19.2657 10.668 19.4155C9.91029 19.6151 9.15261 19.665 8.39494 19.5652C7.63726 19.5153 6.87958 19.3156 6.17241 18.9663C5.46525 18.6668 4.80859 18.2176 4.30348 17.6685L1.87891 20.0643C2.78812 20.9628 3.84887 21.6616 5.01064 22.1607C6.17241 22.6598 7.43521 22.9094 8.69801 22.9593C9.9608 23.0092 11.2236 22.8096 12.4359 22.3604C13.3956 22.011 14.3048 21.5617 15.113 20.9628C15.9212 20.3638 16.6284 19.665 17.184 18.8664C17.184 17.7184 17.1335 16.4706 16.9314 15.1729Z" fill="#083B3A"/>
<path d="M13.6987 8.48535C14.2038 8.98448 14.6079 9.58344 14.911 10.2323C15.214 10.8812 15.4161 11.5301 15.5171 12.2288C15.6181 12.9276 15.6181 13.6264 15.4666 14.3252C15.3151 15.024 15.0625 15.6729 14.7594 16.2718C14.4564 16.8209 14.1028 17.32 13.6987 17.7193C13.2946 18.1186 12.7895 18.468 12.2843 18.7675C11.7792 19.0669 11.2236 19.2666 10.668 19.4163C9.91029 19.616 9.15261 19.6659 8.39494 19.5661C7.63726 19.5162 6.87958 19.3165 6.17241 18.9671C5.46525 18.6676 4.80859 18.2184 4.30348 17.6694L1.87891 20.0652C2.78812 20.9637 3.84887 21.6624 5.01064 22.1616C5.97037 22.5609 7.03112 22.8104 8.09187 22.9103C12.5874 21.6624 15.8202 18.0687 15.8202 13.7762C15.8202 12.2788 15.4161 10.8812 14.7594 9.63335C14.4058 9.28396 14.0523 8.83474 13.6987 8.48535Z" fill="#265453"/>
<path d="M9.55753 8.68544C10.5678 4.89204 13.0934 1.99707 16.0736 0.649414C15.4169 0.74924 14.7603 0.89898 14.1036 1.14855C12.8913 1.59776 11.8306 2.24664 10.9214 2.99533C10.0121 3.69412 9.30497 4.59256 8.74934 5.49099C8.19371 6.43934 7.78962 7.48752 7.58757 8.5357C7.38552 9.58388 7.33501 10.682 7.48655 11.7801C7.63808 12.8781 7.94115 13.9263 8.44627 14.8747C8.90088 15.823 9.50702 16.6715 10.2647 17.4202C9.05241 14.9246 8.69883 11.83 9.55753 8.68544Z" fill="#9BADA1"/>
</g>
<defs>
<clipPath id="clip0_6546_336">
<rect width="25" height="23" fill="white"/>
</clipPath>
</defs>
</svg>
