<svg width="19" height="27" viewBox="0 0 19 27" fill="none" xmlns="http://www.w3.org/2000/svg">
<path d="M17.6772 11.4818C18.5195 12.2347 18.5195 13.9304 17.73 14.6834L15.5079 16.1934L12.2148 13.0826L15.516 10.0312L17.6772 11.4818Z" fill="#FFC801"/>
<path d="M15.5247 16.1788L15.5242 16.1782H15.5237L12.2114 13.0844L12.2104 13.0832L12.2099 13.0838L12.2084 13.082L12.1968 13.0926L1.48912e-08 24.2401V24.7059C-4.88132e-05 25.3213 0.119971 25.9777 0.529541 26.2056C1.06919 26.5059 1.85654 25.919 1.85654 25.919L15.5247 16.1788Z" fill="#F93647"/>
<path d="M12.1968 13.0924L0 24.2399V1.69531L12.1938 13.0878L12.1968 13.0924Z" fill="#00D3FF"/>
<path d="M0 1.47021V1.69579L12.1938 13.0882L12.1968 13.0929L12.2084 13.0823L12.2095 13.0817L12.2144 13.077L15.5155 10.0486C15.5155 10.0486 4.89863 2.43191 1.8209 0.235225C1.68701 0.139659 1.36616 -0.102744 0.981445 0.0484281C0.520557 0.2296 0 0.887491 0 1.47021Z" fill="#00EF77"/>
</svg>
