<svg width="19" height="17" viewBox="0 0 19 17" fill="none" xmlns="http://www.w3.org/2000/svg">
<path d="M9.08919 0.602539L0 13.4661L2.92703 16.3931L6.21351 15.1863V16.3417H12.2216V12.9782L16.9973 11.2323L9.08919 0.602539ZM1.00135 13.389L9.11486 1.912L15.7649 10.8471L3.10676 15.4944L1.00135 13.389ZM11.477 15.5715H6.98378V14.9039L11.4514 13.2606L11.477 15.5715Z" fill="white"/>
<path d="M14.3861 0.000341091L12.2969 3.56738L12.9615 3.95668L15.0508 0.389636L14.3861 0.000341091Z" fill="white"/>
<path d="M17.8418 4.8004L14.2773 6.04102L14.5305 6.76846L18.095 5.52784L17.8418 4.8004Z" fill="white"/>
<path d="M3.87713 13.4655L3.05551 12.7209L2.54199 13.2601L3.6974 14.3642L8.57578 12.5412L8.29334 11.8223L3.87713 13.4655Z" fill="white"/>
</svg>
