<svg width="15" height="18" viewBox="0 0 15 18" fill="none" xmlns="http://www.w3.org/2000/svg">
<g clip-path="url(#clip0_6546_321)">
<path d="M14.9996 7.02824C13.5255 7.03176 12.0876 6.57206 10.889 5.71406V11.698C10.8885 12.8063 10.5498 13.888 9.918 14.7986C9.2862 15.7092 8.39146 16.4051 7.35344 16.7935C6.31541 17.1818 5.18356 17.244 4.10925 16.9717C3.03493 16.6994 2.06935 16.1056 1.34161 15.2697C0.613876 14.4338 0.158675 13.3957 0.0368769 12.2941C-0.0849216 11.1925 0.132487 10.08 0.660033 9.10535C1.18758 8.13067 2.00012 7.34028 2.989 6.83986C3.97788 6.33944 5.09596 6.15284 6.19375 6.30502V9.31473C5.6914 9.15672 5.15197 9.16148 4.65248 9.32833C4.153 9.49519 3.71901 9.8156 3.41249 10.2438C3.10597 10.672 2.94259 11.1862 2.94569 11.7128C2.9488 12.2394 3.11822 12.7515 3.42976 13.1761C3.7413 13.6007 4.17904 13.916 4.68045 14.0769C5.18187 14.2379 5.72132 14.2363 6.22178 14.0724C6.72223 13.9084 7.15809 13.5906 7.46712 13.1642C7.77615 12.7378 7.94254 12.2246 7.94253 11.698V0H10.889C10.8869 0.248819 10.9078 0.497299 10.9512 0.742299C11.0536 1.28922 11.2665 1.80951 11.5769 2.27134C11.8872 2.73317 12.2885 3.12683 12.7563 3.42824C13.4217 3.86822 14.2018 4.10273 14.9996 4.10257V7.02824Z" fill="white"/>
</g>
<defs>
<clipPath id="clip0_6546_321">
<rect width="15" height="17.1429" fill="white"/>
</clipPath>
</defs>
</svg>
