<svg width="20" height="20" viewBox="0 0 20 20" fill="none" xmlns="http://www.w3.org/2000/svg">
<path d="M9.99919 9.94956C11.1691 9.94956 12.1175 9.00115 12.1175 7.83122C12.1175 6.6613 11.1691 5.71289 9.99919 5.71289C8.82927 5.71289 7.88086 6.6613 7.88086 7.83122C7.88086 9.00115 8.82927 9.94956 9.99919 9.94956Z" fill="white"/>
<path d="M12.8926 10.7031H7.10633C6.72966 10.7031 6.42383 11.0085 6.42383 11.3856V15.6927C7.46591 16.3402 8.69175 16.7206 10.0092 16.7206C11.3184 16.7206 12.5367 16.3448 13.5755 15.7044V11.3856C13.5755 11.009 13.2697 10.7031 12.8926 10.7031Z" fill="white"/>
<path d="M10 0C4.47708 0 0 4.47708 0 10C0 15.5229 4.47708 20 10 20C15.5229 20 20 15.5229 20 10C20 4.47708 15.5229 0 10 0ZM10.0121 18.2683C5.41917 18.2683 1.69583 14.545 1.69583 9.95208C1.69583 5.35917 5.41917 1.63583 10.0121 1.63583C14.605 1.63583 18.3283 5.35917 18.3283 9.95208C18.3283 14.545 14.605 18.2683 10.0121 18.2683Z" fill="white"/>
</svg>
